<svg xmlns="http://www.w3.org/2000/svg" width="255" height="68" viewBox="0 0 67.469 17.992"><path d="M25.976 1.47a1.626 1.626 0 0 0-.32-.622 1.383 1.383 0 0 0-.54-.383 2.017 2.017 0 0 0-.761-.131c-.3 0-.565.047-.79.144a1.5 1.5 0 0 0-.567.412c-.15.178-.262.395-.339.65a2.974 2.974 0 0 0-.112.848c0 .325.035.612.103.863.07.25.175.459.317.628.141.17.32.299.538.387.216.09.473.132.771.132.3 0 .565-.048.79-.145a1.479 1.479 0 0 0 .565-.414c.15-.18.262-.4.337-.656.076-.255.113-.543.113-.863 0-.319-.035-.603-.105-.85m-.507 1.498c-.04.191-.11.36-.205.505a1.042 1.042 0 0 1-.38.347 1.201 1.201 0 0 1-.583.127c-.233 0-.425-.038-.58-.117a.944.944 0 0 1-.37-.33 1.448 1.448 0 0 1-.196-.504 3.312 3.312 0 0 1-.058-.643c0-.209.021-.409.063-.599.042-.191.111-.357.208-.5a1.089 1.089 0 0 1 .379-.343 1.184 1.184 0 0 1 .576-.127c.23 0 .42.04.576.12a.96.96 0 0 1 .373.331c.093.14.16.307.199.5.04.191.06.4.06.625 0 .214-.02.417-.062.608m3.048.242a.706.706 0 0 0-.157-.22.977.977 0 0 0-.225-.157 3.064 3.064 0 0 0-.255-.115 26.588 26.588 0 0 0-.255-.102 1.3 1.3 0 0 1-.221-.11.592.592 0 0 1-.159-.142.321.321 0 0 1-.06-.2.395.395 0 0 1 .031-.16.35.35 0 0 1 .094-.128.433.433 0 0 1 .161-.081.782.782 0 0 1 .225-.03.88.88 0 0 1 .255.034 1.445 1.445 0 0 1 .327.142c.033.023.06.034.08.034a.054.054 0 0 0 .032-.01.085.085 0 0 0 .026-.036.212.212 0 0 0 .015-.064.736.736 0 0 0-.009-.23.15.15 0 0 0-.015-.042.17.17 0 0 0-.043-.042.959.959 0 0 0-.245-.114 1.454 1.454 0 0 0-.854.005.937.937 0 0 0-.311.178.718.718 0 0 0-.188.26.794.794 0 0 0-.064.311.734.734 0 0 0 .216.542c.066.063.14.115.222.16.081.043.165.083.25.117l.25.1c.082.031.155.067.22.108a.574.574 0 0 1 .156.14.316.316 0 0 1 .06.196.433.433 0 0 1-.041.198.358.358 0 0 1-.118.136.54.54 0 0 1-.178.082 1.025 1.025 0 0 1-.533-.013 1.52 1.52 0 0 1-.389-.178c-.043-.027-.076-.041-.098-.041a.074.074 0 0 0-.038.01.07.07 0 0 0-.026.036.319.319 0 0 0-.015.064.652.652 0 0 0-.007.097c0 .063.006.112.016.149a.182.182 0 0 0 .048.085.567.567 0 0 0 .107.068 1.68 1.68 0 0 0 1.131.094.995.995 0 0 0 .342-.172.769.769 0 0 0 .222-.278.88.88 0 0 0 .076-.376.715.715 0 0 0-.058-.306M27.415.873a.168.168 0 0 0-.025.057.04.04 0 0 0 .011.041.138.138 0 0 0 .056.024.918.918 0 0 0 .21.006.252.252 0 0 0 .067-.017.156.156 0 0 0 .046-.028.42.42 0 0 0 .043-.05l.552-.713a.1.1 0 0 0 .028-.053c.003-.017-.004-.032-.018-.046a.156.156 0 0 0-.075-.03 1.082 1.082 0 0 0-.264-.006.451.451 0 0 0-.087.02.178.178 0 0 0-.102.089zm3.483.709a.264.264 0 0 0-.016-.098.097.097 0 0 0-.026-.03.236.236 0 0 0-.062-.03.92.92 0 0 0-.293-.05.592.592 0 0 0-.351.107 1.174 1.174 0 0 0-.189.166 2.231 2.231 0 0 0-.211.272V1.52a.074.074 0 0 0-.01-.041.098.098 0 0 0-.036-.03.173.173 0 0 0-.068-.02 1.06 1.06 0 0 0-.223 0 .201.201 0 0 0-.07.02c-.018.008-.03.018-.036.03a.082.082 0 0 0-.01.04v2.746a.076.076 0 0 0 .011.04.082.082 0 0 0 .039.029.28.28 0 0 0 .077.019 1.038 1.038 0 0 0 .247 0 .256.256 0 0 0 .076-.02.09.09 0 0 0 .038-.027.066.066 0 0 0 .013-.041V2.459c.071-.113.136-.208.195-.285a1.265 1.265 0 0 1 .17-.187.567.567 0 0 1 .153-.102.39.39 0 0 1 .15-.029.44.44 0 0 1 .119.013 1.297 1.297 0 0 1 .178.05c.024.011.044.016.06.016a.054.054 0 0 0 .038-.014.122.122 0 0 0 .023-.04.275.275 0 0 0 .013-.072l.003-.115-.002-.112m2.946.655a1.269 1.269 0 0 0-.252-.468 1.088 1.088 0 0 0-.42-.293 1.599 1.599 0 0 0-.593-.102c-.235 0-.44.038-.615.114a1.183 1.183 0 0 0-.438.318 1.343 1.343 0 0 0-.264.487 2.08 2.08 0 0 0-.087.62c0 .232.028.44.083.624a1.234 1.234 0 0 0 .25.466 1.08 1.08 0 0 0 .42.295c.169.067.366.1.593.1.232 0 .436-.038.612-.114a1.204 1.204 0 0 0 .443-.32c.116-.136.204-.299.264-.487.058-.19.089-.396.089-.62 0-.23-.03-.436-.084-.62m-.487 1.094a.974.974 0 0 1-.155.343.705.705 0 0 1-.27.225.867.867 0 0 1-.386.079.86.86 0 0 1-.408-.087.7.7 0 0 1-.263-.236 1.011 1.011 0 0 1-.139-.348 2.05 2.05 0 0 1 .01-.862 1.006 1.006 0 0 1 .156-.344.714.714 0 0 1 .268-.226.867.867 0 0 1 .389-.08.867.867 0 0 1 .408.088.685.685 0 0 1 .26.237c.063.1.11.217.137.35a2.035 2.035 0 0 1-.007.861M37.013.2A.068.068 0 0 0 37 .16a.083.083 0 0 0-.042-.03.34.34 0 0 0-.076-.02.87.87 0 0 0-.327.018.071.071 0 0 0-.04.032.082.082 0 0 0-.01.04v1.59a1.578 1.578 0 0 0-.396-.31.922.922 0 0 0-.439-.106 1.144 1.144 0 0 0-.51.108 1.002 1.002 0 0 0-.37.312 1.423 1.423 0 0 0-.224.487 2.485 2.485 0 0 0-.076.641c0 .2.021.39.062.57.04.18.105.338.193.472a.969.969 0 0 0 .344.317 1.046 1.046 0 0 0 .515.117 1.02 1.02 0 0 0 .51-.13c.154-.088.304-.211.448-.368v.363a.07.07 0 0 0 .012.044c.008.012.022.021.04.029.019.006.042.013.071.017a.782.782 0 0 0 .28-.017.071.071 0 0 0 .039-.03.082.082 0 0 0 .01-.041zm-.51 3.23a2.584 2.584 0 0 1-.225.252 1.5 1.5 0 0 1-.204.167.682.682 0 0 1-.383.118.548.548 0 0 1-.328-.093.672.672 0 0 1-.21-.248 1.206 1.206 0 0 1-.11-.353 2.602 2.602 0 0 1-.033-.408c0-.13.013-.26.038-.385.026-.128.067-.24.122-.34a.705.705 0 0 1 .216-.243.56.56 0 0 1 .327-.092c.137 0 .269.045.395.134.128.09.259.22.395.39zm3.783-.754c0-.18-.023-.348-.069-.506a1.037 1.037 0 0 0-.587-.691 1.317 1.317 0 0 0-.551-.105c-.202 0-.383.036-.546.106a1.158 1.158 0 0 0-.416.302 1.36 1.36 0 0 0-.264.48 2.066 2.066 0 0 0-.09.638c0 .249.03.467.088.654a1.099 1.099 0 0 0 .688.75c.17.064.368.094.592.094.13 0 .252-.01.367-.029.115-.019.216-.042.302-.066.088-.026.158-.051.213-.077a.455.455 0 0 0 .1-.055.14.14 0 0 0 .043-.076.6.6 0 0 0 .005-.214.203.203 0 0 0-.014-.06.065.065 0 0 0-.025-.032.064.064 0 0 0-.039-.012.3.3 0 0 0-.108.034 2.468 2.468 0 0 1-.45.145 1.678 1.678 0 0 1-.348.032 1.103 1.103 0 0 1-.417-.07.691.691 0 0 1-.278-.202.8.8 0 0 1-.153-.316 1.69 1.69 0 0 1-.046-.413h1.807a.204.204 0 0 0 .136-.051c.04-.033.06-.09.06-.17zm-2.002-.06a1.136 1.136 0 0 1 .057-.323.87.87 0 0 1 .146-.271.711.711 0 0 1 .564-.258c.242 0 .426.077.548.227.124.152.182.36.176.625zm5.014 1.585a.711.711 0 0 0-.056-.083l-1.12-1.448.997-.995a.437.437 0 0 0 .065-.085.154.154 0 0 0 .02-.073.069.069 0 0 0-.012-.045.1.1 0 0 0-.047-.028.35.35 0 0 0-.084-.015 1.455 1.455 0 0 0-.254 0 .343.343 0 0 0-.09.02.255.255 0 0 0-.117.083l-1.038 1.14V.191a.075.075 0 0 0-.012-.043.09.09 0 0 0-.039-.031.273.273 0 0 0-.076-.018 1.007 1.007 0 0 0-.324.018.076.076 0 0 0-.038.03.078.078 0 0 0-.012.044v4.074c0 .015.004.029.012.04a.078.078 0 0 0 .038.028.275.275 0 0 0 .078.02 1.02 1.02 0 0 0 .245 0 .256.256 0 0 0 .076-.02.092.092 0 0 0 .04-.028.066.066 0 0 0 .012-.04V2.742l1.16 1.519a.167.167 0 0 0 .101.077.39.39 0 0 0 .09.016 1.589 1.589 0 0 0 .267-.001.288.288 0 0 0 .08-.02.09.09 0 0 0 .043-.029.083.083 0 0 0 .013-.043.128.128 0 0 0-.018-.06m4.977-2.692a1.624 1.624 0 0 0-.363-.602 1.588 1.588 0 0 0-.593-.382 2.471 2.471 0 0 0-.866-.131h-.892a.217.217 0 0 0-.134.047c-.042.03-.062.087-.062.166v3.519c0 .079.02.133.062.165a.217.217 0 0 0 .133.047h.835c.338 0 .628-.042.872-.124.243-.083.45-.21.618-.377.167-.168.295-.38.383-.635.086-.255.131-.552.131-.893 0-.297-.042-.564-.124-.8m-.515 1.518a1.257 1.257 0 0 1-.261.488 1.048 1.048 0 0 1-.434.29 1.896 1.896 0 0 1-.638.094h-.542V.832h.535c.273 0 .497.038.67.112.173.077.316.181.43.314a1.275 1.275 0 0 1 .248.477c.053.184.08.382.08.594 0 .268-.03.5-.088.696m3.73-.35c0-.18-.02-.348-.067-.507a1.046 1.046 0 0 0-.586-.69 1.317 1.317 0 0 0-.552-.105c-.202 0-.383.036-.546.106a1.163 1.163 0 0 0-.416.302 1.38 1.38 0 0 0-.264.48 2.066 2.066 0 0 0-.091.638c0 .249.03.467.089.654a1.099 1.099 0 0 0 .688.75c.17.064.368.094.592.094.13 0 .252-.01.367-.03a2.958 2.958 0 0 0 .302-.065 1.57 1.57 0 0 0 .213-.077.455.455 0 0 0 .098-.055.191.191 0 0 0 .029-.034.153.153 0 0 0 .015-.042.6.6 0 0 0 .006-.215.237.237 0 0 0-.014-.06.07.07 0 0 0-.025-.031.066.066 0 0 0-.039-.012.3.3 0 0 0-.108.033 2.07 2.07 0 0 1-.447.146 1.67 1.67 0 0 1-.35.032 1.105 1.105 0 0 1-.418-.07.694.694 0 0 1-.28-.202.806.806 0 0 1-.152-.316 1.735 1.735 0 0 1-.045-.413h1.807a.204.204 0 0 0 .136-.051c.038-.033.059-.09.059-.17zm-2-.06a1.122 1.122 0 0 1 .058-.323.86.86 0 0 1 .145-.271.714.714 0 0 1 .236-.187.723.723 0 0 1 .328-.071c.242 0 .424.076.548.227.124.152.182.36.176.625zm5.24-.333a1.403 1.403 0 0 0-.194-.47.984.984 0 0 0-.345-.32 1.03 1.03 0 0 0-.51-.12 1.014 1.014 0 0 0-.451.103 1.41 1.41 0 0 0-.226.14 2.127 2.127 0 0 0-.236.21V.19a.074.074 0 0 0-.012-.042.087.087 0 0 0-.039-.031.278.278 0 0 0-.076-.018 1.016 1.016 0 0 0-.324.018.08.08 0 0 0-.038.03.087.087 0 0 0-.013.044v4.074c0 .015.004.03.01.042.007.012.02.021.037.029.018.006.041.013.07.017a.736.736 0 0 0 .276-.017.083.083 0 0 0 .04-.03.08.08 0 0 0 .012-.043v-.335c.08.083.153.154.224.214.072.059.143.109.215.147a.928.928 0 0 0 .216.084c.076.016.157.025.244.025.189 0 .357-.035.504-.107a1.016 1.016 0 0 0 .37-.308c.101-.135.178-.297.229-.487.05-.192.078-.406.078-.644 0-.2-.02-.39-.062-.569m-.497 1.007a1.174 1.174 0 0 1-.124.342.701.701 0 0 1-.219.244.564.564 0 0 1-.325.091.674.674 0 0 1-.395-.133 2.078 2.078 0 0 1-.4-.39V2.349c.078-.104.154-.188.225-.257.07-.067.138-.123.204-.166a.687.687 0 0 1 .386-.12.56.56 0 0 1 .33.093.685.685 0 0 1 .211.247c.054.102.09.221.112.354.022.132.033.27.033.41 0 .129-.012.256-.038.383m3.38-.88c0-.172-.019-.323-.057-.45a.762.762 0 0 0-.186-.323.819.819 0 0 0-.337-.197 1.657 1.657 0 0 0-.504-.068 2.099 2.099 0 0 0-.601.102 1.482 1.482 0 0 0-.232.096.64.64 0 0 0-.142.093.177.177 0 0 0-.052.084.528.528 0 0 0-.005.205.225.225 0 0 0 .02.063.102.102 0 0 0 .032.037.079.079 0 0 0 .043.012.259.259 0 0 0 .111-.044 1.794 1.794 0 0 1 .446-.193 1.178 1.178 0 0 1 .628-.002.468.468 0 0 1 .194.12.49.49 0 0 1 .108.205 1.09 1.09 0 0 1 .034.28v.215h-.377c-.214 0-.407.019-.576.056-.171.038-.317.094-.434.17a.79.79 0 0 0-.27.284.824.824 0 0 0-.095.404c0 .132.022.25.068.354.046.105.11.191.191.264a.85.85 0 0 0 .3.163c.116.037.247.056.391.056.166 0 .32-.035.468-.107.148-.071.28-.17.4-.3v.276c0 .026.008.042.022.055a.158.158 0 0 0 .07.028.72.72 0 0 0 .127.009.664.664 0 0 0 .125-.009.185.185 0 0 0 .066-.028.065.065 0 0 0 .025-.055zm-.5 1.183c-.123.14-.242.242-.354.311a.692.692 0 0 1-.365.102.527.527 0 0 1-.377-.127.451.451 0 0 1-.135-.344.5.5 0 0 1 .047-.224.427.427 0 0 1 .147-.165.73.73 0 0 1 .252-.106 1.581 1.581 0 0 1 .357-.036h.428zm2.799.372a.371.371 0 0 0-.014-.058c-.005-.013-.013-.024-.022-.028a.062.062 0 0 0-.03-.008.14.14 0 0 0-.054.013 1.198 1.198 0 0 1-.172.059.525.525 0 0 1-.126.012c-.146 0-.246-.048-.302-.144a.862.862 0 0 1-.086-.428v-1.53h.71c.03 0 .056-.016.074-.049a.346.346 0 0 0 .028-.159.658.658 0 0 0-.006-.1.217.217 0 0 0-.02-.065.093.093 0 0 0-.032-.038.09.09 0 0 0-.044-.009h-.71V.781a.069.069 0 0 0-.013-.038.096.096 0 0 0-.038-.033.232.232 0 0 0-.076-.02 1.029 1.029 0 0 0-.245 0 .247.247 0 0 0-.078.02.084.084 0 0 0-.038.032.075.075 0 0 0-.013.04v.653h-.377a.094.094 0 0 0-.044.01.075.075 0 0 0-.032.037.284.284 0 0 0-.019.066.546.546 0 0 0-.007.099c0 .073.009.127.026.16.018.032.044.05.073.05h.381v1.602c0 .158.014.296.045.413a.685.685 0 0 0 .141.29c.065.076.15.133.252.17a1.057 1.057 0 0 0 .507.047c.046-.006.09-.012.133-.023a.657.657 0 0 0 .112-.034.251.251 0 0 0 .073-.046.16.16 0 0 0 .037-.076.64.64 0 0 0 .006-.233m2.9-2.357a.296.296 0 0 0 .017-.09.07.07 0 0 0-.025-.058.163.163 0 0 0-.082-.03 1.207 1.207 0 0 0-.29 0 .204.204 0 0 0-.076.025c-.018.011-.033.036-.045.075l-.757 2.212h-.009l-.784-2.2a.441.441 0 0 0-.03-.063.087.087 0 0 0-.044-.035.305.305 0 0 0-.081-.017 1.666 1.666 0 0 0-.29.002.153.153 0 0 0-.08.031.071.071 0 0 0-.024.057c0 .025.007.058.025.101l.98 2.62a.153.153 0 0 0 .032.059.16.16 0 0 0 .051.04l-.377.956a.153.153 0 0 0-.015.072.064.064 0 0 0 .03.049.153.153 0 0 0 .073.025.867.867 0 0 0 .128.01.727.727 0 0 0 .229-.027c.048-.017.08-.043.092-.076l.366-1.01.985-2.728M27.063 7.424a.282.282 0 0 0-.019-.107.227.227 0 0 0-.047-.074.18.18 0 0 0-.072-.042.28.28 0 0 0-.089-.013h-.335a.51.51 0 0 0-.137.015.311.311 0 0 0-.105.055.41.41 0 0 0-.09.102.89.89 0 0 0-.072.157l-1.182 2.848h-.016l-1.133-2.858a.676.676 0 0 0-.064-.143.338.338 0 0 0-.223-.158.722.722 0 0 0-.172-.02h-.321a.233.233 0 0 0-.15.056c-.047.038-.07.098-.07.183v3.63c0 .015.004.03.013.042.005.013.02.022.038.03a.51.51 0 0 0 .08.017.88.88 0 0 0 .253 0 .565.565 0 0 0 .082-.017.083.083 0 0 0 .043-.03.076.076 0 0 0 .013-.042v-3.44h.002l1.335 3.454a.071.071 0 0 0 .023.033.144.144 0 0 0 .047.026c.02.007.046.013.077.016a.842.842 0 0 0 .215.003.377.377 0 0 0 .077-.015.138.138 0 0 0 .047-.026.112.112 0 0 0 .027-.038l1.397-3.453h.007v3.439c0 .015.003.03.012.042.008.013.022.022.042.03a.863.863 0 0 0 .41 0 .083.083 0 0 0 .044-.03.078.078 0 0 0 .013-.042zm1.497.889a.071.071 0 0 0-.013-.04.092.092 0 0 0-.038-.03.247.247 0 0 0-.077-.018 1.016 1.016 0 0 0-.322.018.078.078 0 0 0-.04.03.076.076 0 0 0-.011.04v2.745c0 .016.004.03.01.042a.09.09 0 0 0 .04.028.284.284 0 0 0 .077.018.995.995 0 0 0 .322-.018.108.108 0 0 0 .04-.028.068.068 0 0 0 .012-.042zm-.005-1.164c-.045-.041-.125-.062-.242-.062-.12 0-.202.02-.246.064-.046.042-.068.123-.068.24 0 .115.022.192.065.234.043.043.125.063.242.063.12 0 .202-.022.246-.064.045-.042.068-.122.068-.24 0-.114-.022-.193-.065-.235m3.27 2.32c0-.178-.021-.347-.067-.505a1.04 1.04 0 0 0-.587-.69 1.32 1.32 0 0 0-.552-.105c-.201 0-.382.035-.546.104a1.153 1.153 0 0 0-.415.302 1.342 1.342 0 0 0-.264.48 2.057 2.057 0 0 0-.09.636c0 .247.027.464.087.65a1.244 1.244 0 0 0 .257.464 1.052 1.052 0 0 0 .418.283c.166.063.357.095.572.095a1.719 1.719 0 0 0 .37-.04l-.163.168a1.207 1.207 0 0 0-.115.132.714.714 0 0 0-.074.117.48.48 0 0 0-.05.224c0 .152.05.266.157.345.106.076.255.114.444.114a1.57 1.57 0 0 0 .428-.053.255.255 0 0 0 .051-.02.076.076 0 0 0 .03-.03.17.17 0 0 0 .015-.05.592.592 0 0 0 .005-.085c0-.053-.006-.09-.02-.106-.013-.018-.035-.025-.063-.025h-.331c-.082 0-.14-.016-.175-.042-.034-.028-.051-.072-.051-.13 0-.026.006-.06.023-.101a.478.478 0 0 1 .102-.14l.412-.429a.297.297 0 0 0 .04-.05.21.21 0 0 0 .022-.053.386.386 0 0 0 .01-.071 3.129 3.129 0 0 0-.003-.194.261.261 0 0 0-.014-.06.07.07 0 0 0-.026-.032.071.071 0 0 0-.038-.01.29.29 0 0 0-.109.033 1.966 1.966 0 0 1-.446.145 1.645 1.645 0 0 1-.344.032 1.1 1.1 0 0 1-.417-.07.686.686 0 0 1-.277-.2.794.794 0 0 1-.153-.313 1.703 1.703 0 0 1-.044-.408h1.798a.205.205 0 0 0 .135-.05c.038-.034.058-.09.058-.17zm-1.99-.059a1.142 1.142 0 0 1 .057-.323.852.852 0 0 1 .146-.27.723.723 0 0 1 .234-.188.72.72 0 0 1 .324-.07c.242 0 .423.076.546.227.122.15.18.358.175.624zm5.111-2.416a.071.071 0 0 0-.014-.04.09.09 0 0 0-.042-.031.395.395 0 0 0-.076-.02.867.867 0 0 0-.327.02.07.07 0 0 0-.04.03.08.08 0 0 0-.012.041v1.59a1.572 1.572 0 0 0-.394-.31.924.924 0 0 0-.438-.105 1.146 1.146 0 0 0-.51.108 1.009 1.009 0 0 0-.37.31 1.432 1.432 0 0 0-.225.488 2.482 2.482 0 0 0-.076.64c0 .2.022.39.061.57.041.181.105.338.194.472a.963.963 0 0 0 .86.436 1.02 1.02 0 0 0 .51-.131c.152-.09.303-.21.447-.368v.364c0 .016.004.03.013.042a.07.07 0 0 0 .04.03.344.344 0 0 0 .07.016.784.784 0 0 0 .281-.017.074.074 0 0 0 .038-.028.082.082 0 0 0 .01-.043zm-.51 3.23a2.627 2.627 0 0 1-.225.251c-.072.069-.14.125-.204.167a.685.685 0 0 1-.383.12.548.548 0 0 1-.329-.094.676.676 0 0 1-.209-.248 1.18 1.18 0 0 1-.11-.354 2.554 2.554 0 0 1-.033-.408c0-.13.013-.258.039-.385.025-.128.065-.24.12-.34a.708.708 0 0 1 .218-.242.557.557 0 0 1 .325-.091c.139 0 .27.044.396.133.128.09.26.22.395.39zm3.183.6a.235.235 0 0 0-.023-.067.084.084 0 0 0-.077-.045h-1.286l1.204-1.896a.846.846 0 0 0 .05-.088.488.488 0 0 0 .052-.144.431.431 0 0 0 .007-.079v-.1a.275.275 0 0 0-.011-.083.15.15 0 0 0-.03-.055.1.1 0 0 0-.043-.03.177.177 0 0 0-.059-.01h-1.572a.092.092 0 0 0-.047.012.082.082 0 0 0-.033.035.213.213 0 0 0-.02.067.649.649 0 0 0-.006.095c0 .074.01.128.028.162.02.033.046.05.078.05h1.173l-1.21 1.895-.05.086a.449.449 0 0 0-.052.138.423.423 0 0 0-.007.077v.102c0 .067.014.114.042.142a.138.138 0 0 0 .104.042h1.687a.098.098 0 0 0 .046-.01.071.071 0 0 0 .033-.035.435.435 0 0 0 .03-.166.444.444 0 0 0-.008-.098m2.912-2.418a.296.296 0 0 0 .02-.092.073.073 0 0 0-.026-.057.156.156 0 0 0-.082-.03 1.066 1.066 0 0 0-.14-.007 1.116 1.116 0 0 0-.15.008.189.189 0 0 0-.077.025c-.018.01-.033.036-.045.074l-.757 2.212h-.009l-.784-2.2a.49.49 0 0 0-.028-.063.085.085 0 0 0-.045-.034.302.302 0 0 0-.083-.017 1.887 1.887 0 0 0-.29.003.15.15 0 0 0-.078.029.074.074 0 0 0-.026.057c0 .026.01.059.026.102l.979 2.62a.147.147 0 0 0 .033.058.144.144 0 0 0 .052.04l-.378.956a.153.153 0 0 0-.016.074.07.07 0 0 0 .03.048c.016.013.042.02.074.026a.883.883 0 0 0 .129.007.762.762 0 0 0 .226-.025c.051-.018.082-.042.094-.076l.365-1.01zm2.958.976a2.167 2.167 0 0 0-.05-.504 1.007 1.007 0 0 0-.165-.366.836.836 0 0 0-.304-.249 1.033 1.033 0 0 0-.463-.093.983.983 0 0 0-.465.123c-.153.081-.309.21-.463.385V8.31a.079.079 0 0 0-.01-.04.106.106 0 0 0-.035-.031.187.187 0 0 0-.068-.018 1.209 1.209 0 0 0-.224 0 .21.21 0 0 0-.07.018.084.084 0 0 0-.035.03.083.083 0 0 0-.01.041v2.747c0 .016.003.03.01.042a.092.092 0 0 0 .04.028c.02.007.045.014.077.018a.986.986 0 0 0 .323-.018.098.098 0 0 0 .038-.028.066.066 0 0 0 .013-.042v-1.92c.139-.174.271-.305.397-.394a.649.649 0 0 1 .38-.136c.098 0 .184.02.26.057.073.035.134.089.181.158a.843.843 0 0 1 .108.247c.024.096.035.222.035.379v1.609c0 .016.004.03.013.042a.108.108 0 0 0 .038.028.31.31 0 0 0 .077.018 1.016 1.016 0 0 0 .322-.018.106.106 0 0 0 .039-.028.069.069 0 0 0 .012-.042zm2.984-.175c0-.172-.02-.321-.058-.45a.769.769 0 0 0-.187-.323.816.816 0 0 0-.336-.197 1.656 1.656 0 0 0-.505-.067c-.104 0-.21.01-.313.028a2.109 2.109 0 0 0-.287.073c-.09.03-.166.061-.233.097a.645.645 0 0 0-.14.092.175.175 0 0 0-.054.084.564.564 0 0 0-.004.205c.004.026.01.046.02.064a.106.106 0 0 0 .032.036.066.066 0 0 0 .042.012.26.26 0 0 0 .111-.043 1.895 1.895 0 0 1 .447-.192 1.186 1.186 0 0 1 .628-.004.459.459 0 0 1 .194.122.468.468 0 0 1 .108.204 1.066 1.066 0 0 1 .035.28v.214h-.379c-.214 0-.405.019-.576.057-.171.038-.315.094-.434.17a.787.787 0 0 0-.27.284.82.82 0 0 0-.094.403c0 .134.022.25.068.355.046.104.11.192.192.263a.845.845 0 0 0 .298.163c.117.039.249.058.393.058a1.062 1.062 0 0 0 .468-.109c.146-.07.28-.17.4-.298v.274c0 .026.006.043.022.056.012.013.037.02.067.026a.674.674 0 0 0 .128.01.61.61 0 0 0 .125-.01.17.17 0 0 0 .067-.026c.017-.013.024-.032.024-.056zm-.5 1.184a1.67 1.67 0 0 1-.355.311.699.699 0 0 1-.366.102.53.53 0 0 1-.377-.127.451.451 0 0 1-.135-.344.433.433 0 0 1 .194-.39.74.74 0 0 1 .252-.105c.102-.024.22-.036.357-.036h.43zm3.03-2.013a.317.317 0 0 0-.016-.098.09.09 0 0 0-.026-.03.21.21 0 0 0-.062-.03.839.839 0 0 0-.47-.025.58.58 0 0 0-.175.081 1.198 1.198 0 0 0-.188.166 2.187 2.187 0 0 0-.211.273v-.4a.075.075 0 0 0-.01-.041.106.106 0 0 0-.035-.031.184.184 0 0 0-.069-.018 1.22 1.22 0 0 0-.223 0 .212.212 0 0 0-.07.018.084.084 0 0 0-.036.03.09.09 0 0 0-.009.041v2.747c0 .016.003.03.01.042a.09.09 0 0 0 .039.028c.02.007.046.014.078.018a.988.988 0 0 0 .322-.018.106.106 0 0 0 .038-.028.069.069 0 0 0 .013-.042V9.252c.071-.112.137-.206.195-.285.059-.077.116-.14.17-.186a.574.574 0 0 1 .153-.102.385.385 0 0 1 .15-.03.49.49 0 0 1 .119.013 1.9 1.9 0 0 1 .178.052.18.18 0 0 0 .06.014.052.052 0 0 0 .038-.012.102.102 0 0 0 .023-.041.275.275 0 0 0 .013-.072l.003-.114-.002-.113m2.946.654a1.266 1.266 0 0 0-.252-.467 1.08 1.08 0 0 0-.42-.294 1.585 1.585 0 0 0-.593-.102c-.235 0-.44.039-.615.115a1.186 1.186 0 0 0-.438.318 1.34 1.34 0 0 0-.264.487 2.122 2.122 0 0 0-.087.62c0 .231.028.44.083.624a1.242 1.242 0 0 0 .251.467 1.076 1.076 0 0 0 .42.293c.17.067.365.102.592.102.232 0 .436-.038.612-.115a1.193 1.193 0 0 0 .443-.319c.116-.137.204-.3.264-.49.058-.187.089-.393.089-.618 0-.23-.03-.437-.084-.62m-.487 1.093a.965.965 0 0 1-.154.345.714.714 0 0 1-.27.223.873.873 0 0 1-.387.08.863.863 0 0 1-.408-.088.696.696 0 0 1-.263-.236 1 1 0 0 1-.139-.348 2.078 2.078 0 0 1 .01-.86 1.017 1.017 0 0 1 .156-.346.714.714 0 0 1 .268-.226.873.873 0 0 1 .389-.08c.163 0 .3.03.408.09a.689.689 0 0 1 .26.235c.063.102.11.217.137.35a2.04 2.04 0 0 1-.007.861m3.655-3.13a.069.069 0 0 0-.014-.04.087.087 0 0 0-.04-.031.413.413 0 0 0-.077-.02.868.868 0 0 0-.328.02.07.07 0 0 0-.04.03.08.08 0 0 0-.012.041v1.59a1.57 1.57 0 0 0-.393-.31.927.927 0 0 0-.44-.105 1.146 1.146 0 0 0-.51.108 1.015 1.015 0 0 0-.37.31 1.432 1.432 0 0 0-.222.488 2.482 2.482 0 0 0-.077.64c0 .2.02.39.061.57.04.181.105.338.193.472a.965.965 0 0 0 .86.436 1.023 1.023 0 0 0 .51-.131c.153-.09.304-.21.447-.368v.364a.075.075 0 0 0 .052.071.357.357 0 0 0 .071.017.78.78 0 0 0 .28-.017.076.076 0 0 0 .04-.028.085.085 0 0 0 .01-.043zm-.51 3.23c-.08.1-.154.183-.225.251a1.415 1.415 0 0 1-.204.167.691.691 0 0 1-.383.12.548.548 0 0 1-.328-.094.676.676 0 0 1-.21-.248 1.195 1.195 0 0 1-.11-.354 2.554 2.554 0 0 1-.033-.408c0-.13.013-.258.039-.385.025-.128.066-.24.12-.34a.704.704 0 0 1 .217-.242.557.557 0 0 1 .327-.091c.137 0 .269.044.395.133.128.09.259.22.395.39zm3.92-1.194a1.274 1.274 0 0 0-.254-.467 1.076 1.076 0 0 0-.42-.294 1.59 1.59 0 0 0-.592-.102c-.235 0-.44.039-.615.115a1.18 1.18 0 0 0-.439.318c-.117.136-.204.3-.264.487a2.122 2.122 0 0 0-.086.62c0 .231.028.44.083.624a1.237 1.237 0 0 0 .25.467 1.076 1.076 0 0 0 .422.293c.168.067.364.102.591.102.232 0 .436-.038.612-.115a1.19 1.19 0 0 0 .441-.319c.118-.137.207-.3.266-.49.058-.187.089-.393.089-.618 0-.23-.03-.437-.084-.62m-.487 1.093a.965.965 0 0 1-.155.345.717.717 0 0 1-.269.223.876.876 0 0 1-.387.08.86.86 0 0 1-.408-.088.695.695 0 0 1-.263-.236.99.99 0 0 1-.139-.348 2.078 2.078 0 0 1 .009-.86 1.007 1.007 0 0 1 .157-.346.711.711 0 0 1 .268-.226.87.87 0 0 1 .388-.08c.164 0 .3.03.408.09a.685.685 0 0 1 .26.235c.064.102.11.217.138.35a2.07 2.07 0 0 1-.007.861m5.119-1.86a.096.096 0 0 0-.037-.028.204.204 0 0 0-.07-.014 1.928 1.928 0 0 0-.248 0 .296.296 0 0 0-.079.017.088.088 0 0 0-.042.029.135.135 0 0 0-.02.048l-.653 2.257-.003.028-.006-.026-.655-2.265a.15.15 0 0 0-.02-.043.079.079 0 0 0-.039-.028.269.269 0 0 0-.075-.016 1.42 1.42 0 0 0-.248 0 .269.269 0 0 0-.075.016.087.087 0 0 0-.04.029.128.128 0 0 0-.021.048l-.607 2.257-.005.028-.006-.026-.663-2.259a.242.242 0 0 0-.02-.048.079.079 0 0 0-.04-.03.28.28 0 0 0-.08-.015 1.78 1.78 0 0 0-.256 0 .286.286 0 0 0-.079.012.087.087 0 0 0-.04.028.074.074 0 0 0-.013.043.618.618 0 0 0 .028.128l.803 2.608a.12.12 0 0 0 .026.051.125.125 0 0 0 .057.035.51.51 0 0 0 .098.018 2.366 2.366 0 0 0 .309.001.505.505 0 0 0 .102-.017.128.128 0 0 0 .058-.033.126.126 0 0 0 .03-.055l.534-1.995.005-.027.01.027.578 1.995c.005.02.015.039.027.051a.12.12 0 0 0 .056.035c.025.007.06.014.102.018a2.32 2.32 0 0 0 .31.001.414.414 0 0 0 .098-.015.129.129 0 0 0 .054-.035.13.13 0 0 0 .03-.055l.808-2.607a.694.694 0 0 0 .022-.076.263.263 0 0 0 .005-.051.074.074 0 0 0-.01-.044m2.913 1.205c0-.178-.023-.347-.069-.505a1.122 1.122 0 0 0-.215-.412 1.033 1.033 0 0 0-.373-.28 1.316 1.316 0 0 0-.55-.103c-.2 0-.383.035-.545.105a1.154 1.154 0 0 0-.417.303 1.335 1.335 0 0 0-.262.48 2.063 2.063 0 0 0-.092.638c0 .248.03.466.09.654a1.091 1.091 0 0 0 .688.748c.168.064.366.096.59.096.13 0 .252-.01.367-.03a2.958 2.958 0 0 0 .302-.067c.087-.024.158-.05.213-.076a.455.455 0 0 0 .1-.054.191.191 0 0 0 .026-.036.11.11 0 0 0 .016-.042.594.594 0 0 0 .011-.12.783.783 0 0 0-.005-.094.242.242 0 0 0-.013-.06.07.07 0 0 0-.026-.032.07.07 0 0 0-.039-.011.3.3 0 0 0-.108.033 2.091 2.091 0 0 1-.448.145 1.68 1.68 0 0 1-.348.033 1.103 1.103 0 0 1-.42-.071.69.69 0 0 1-.277-.201.8.8 0 0 1-.153-.315 1.715 1.715 0 0 1-.046-.415h1.807a.202.202 0 0 0 .136-.05c.04-.033.06-.09.06-.17zM64.07 9.41a1.142 1.142 0 0 1 .059-.323.844.844 0 0 1 .146-.27.728.728 0 0 1 .236-.188.728.728 0 0 1 .327-.07c.242 0 .425.076.548.227.124.15.182.358.176.624zm3.34-1.096a.075.075 0 0 0-.012-.04.09.09 0 0 0-.042-.031.275.275 0 0 0-.08-.018 1.014 1.014 0 0 0-.323.018.094.094 0 0 0-.042.03.075.075 0 0 0-.013.04v2.862c0 .148-.006.259-.02.332a.497.497 0 0 1-.067.178.268.268 0 0 1-.117.098.442.442 0 0 1-.172.03.824.824 0 0 1-.124-.008.616.616 0 0 0-.071-.006.054.054 0 0 0-.035.01.094.094 0 0 0-.025.034.23.23 0 0 0-.014.064.81.81 0 0 0 .005.217.124.124 0 0 0 .02.046.102.102 0 0 0 .05.034.56.56 0 0 0 .105.028c.046.008.102.013.167.013a.944.944 0 0 0 .37-.066.617.617 0 0 0 .25-.194.85.85 0 0 0 .143-.315c.031-.125.046-.288.046-.492zm-.005-1.165c-.043-.041-.124-.062-.244-.062s-.203.02-.246.064c-.045.042-.067.123-.067.24 0 .115.022.192.064.234.043.043.124.063.242.063.121 0 .204-.022.248-.064.044-.042.067-.122.067-.24 0-.114-.02-.193-.064-.235" fill="#231f20"/><path d="M1.515 5.77a3.793 3.793 0 0 0 3.789 3.788A3.793 3.793 0 0 0 9.091 5.77a3.793 3.793 0 0 0-3.787-3.786 3.793 3.793 0 0 0-3.79 3.786zM0 5.77a5.304 5.304 0 1 1 10.608.003A5.304 5.304 0 0 1 0 5.77" fill="#e11a22"/><path d="M18.181 17.894a3.793 3.793 0 0 0-3.786-3.786 3.794 3.794 0 0 0-3.79 3.786H9.091a3.793 3.793 0 0 0-3.787-3.786 3.793 3.793 0 0 0-3.79 3.786H0a5.303 5.303 0 0 1 9.848-2.732 5.304 5.304 0 0 1 9.85 2.732h-1.515" fill="#254b84"/><path d="M12.234 9.558h2.16a3.793 3.793 0 0 0 3.789-3.788 3.793 3.793 0 0 0-3.787-3.788h-2.164V.468h2.161a5.304 5.304 0 0 1 0 10.605h-2.16V9.558" fill="#da9d12"/><path d="M24.748 17.7a.594.594 0 0 1-.005.09.194.194 0 0 1-.018.06.107.107 0 0 1-.03.038.066.066 0 0 1-.039.013h-1.513a.181.181 0 0 1-.113-.042c-.035-.027-.053-.077-.053-.144v-1.259l-.338.218c-.03.018-.054.015-.069-.009-.015-.024-.023-.074-.023-.153 0-.03 0-.055.003-.078a.25.25 0 0 1 .011-.06.142.142 0 0 1 .024-.044.13.13 0 0 1 .039-.03l.353-.228v-1.52a.06.06 0 0 1 .01-.035.071.071 0 0 1 .038-.026.28.28 0 0 1 .069-.018 1.026 1.026 0 0 1 .218 0 .282.282 0 0 1 .071.017.074.074 0 0 1 .037.026.057.057 0 0 1 .01.035v1.24l.597-.374c.03-.018.054-.014.07.01a.314.314 0 0 1 .023.148.697.697 0 0 1-.003.082.277.277 0 0 1-.013.06.178.178 0 0 1-.023.043.115.115 0 0 1-.038.032l-.612.382v1.334h1.225a.064.064 0 0 1 .038.011.107.107 0 0 1 .03.035.17.17 0 0 1 .019.059.617.617 0 0 1 .005.089m1.69-3.406a.17.17 0 0 1 .037-.047.145.145 0 0 1 .051-.03.36.36 0 0 1 .076-.016.93.93 0 0 1 .228.005.138.138 0 0 1 .064.026c.012.013.017.025.016.04a.084.084 0 0 1-.024.045l-.477.616a.412.412 0 0 1-.038.042.128.128 0 0 1-.04.026.213.213 0 0 1-.058.012.793.793 0 0 1-.181-.003.108.108 0 0 1-.049-.022.034.034 0 0 1-.01-.033.14.14 0 0 1 .022-.051zm.52 2.353c0-.13-.013-.25-.036-.365a.896.896 0 0 0-.119-.3.587.587 0 0 0-.224-.205.74.74 0 0 0-.351-.076.747.747 0 0 0-.334.068.612.612 0 0 0-.23.194.875.875 0 0 0-.136.297 1.808 1.808 0 0 0-.008.742.864.864 0 0 0 .12.3.612.612 0 0 0 .226.204c.094.051.21.075.35.075.128 0 .24-.023.335-.069a.612.612 0 0 0 .23-.192.844.844 0 0 0 .134-.296c.028-.115.042-.24.042-.377zm.45-.03c0 .194-.025.373-.076.536a1.187 1.187 0 0 1-.228.42 1.031 1.031 0 0 1-.38.276 1.341 1.341 0 0 1-.53.098 1.377 1.377 0 0 1-.51-.087.936.936 0 0 1-.363-.253 1.074 1.074 0 0 1-.216-.403 1.883 1.883 0 0 1-.072-.54c0-.193.026-.37.076-.535a1.154 1.154 0 0 1 .226-.42 1.021 1.021 0 0 1 .38-.275c.15-.064.328-.097.53-.097.196 0 .365.03.51.087a.93.93 0 0 1 .364.254 1.081 1.081 0 0 1 .217.404c.048.158.073.336.073.535m2.239-.456a1.724 1.724 0 0 0-.342-.334.595.595 0 0 0-.344-.115.482.482 0 0 0-.282.08.61.61 0 0 0-.19.207 1 1 0 0 0-.105.293 1.69 1.69 0 0 0-.033.333c0 .12.01.237.028.352.018.115.051.217.096.305.046.089.106.159.182.214.077.053.171.079.286.079a.587.587 0 0 0 .331-.102 1.25 1.25 0 0 0 .179-.144c.06-.06.125-.132.194-.218zm.438 1.67a.077.077 0 0 1-.009.038.061.061 0 0 1-.032.025.254.254 0 0 1-.06.014.634.634 0 0 1-.182 0 .268.268 0 0 1-.06-.014.074.074 0 0 1-.034-.026.066.066 0 0 1-.01-.037v-.314a1.6 1.6 0 0 1-.39.318.889.889 0 0 1-.442.112.92.92 0 0 1-.446-.102.847.847 0 0 1-.3-.273 1.211 1.211 0 0 1-.168-.408 2.241 2.241 0 0 1-.052-.492c0-.204.022-.387.065-.552a1.24 1.24 0 0 1 .196-.42.877.877 0 0 1 .32-.27.995.995 0 0 1 .443-.093.803.803 0 0 1 .382.09c.115.062.23.151.34.268v-1.38c0-.012.004-.025.01-.036.006-.012.019-.02.036-.026a.657.657 0 0 1 .171-.021.701.701 0 0 1 .175.021.075.075 0 0 1 .036.026.071.071 0 0 1 .012.037v3.515m1.644-3.537a.17.17 0 0 1 .037-.047.145.145 0 0 1 .05-.03.36.36 0 0 1 .076-.016.93.93 0 0 1 .23.005.138.138 0 0 1 .063.026c.013.013.018.025.016.04a.084.084 0 0 1-.023.045l-.478.616a.412.412 0 0 1-.039.042.128.128 0 0 1-.04.026.213.213 0 0 1-.057.012.803.803 0 0 1-.182-.003.108.108 0 0 1-.048-.022.034.034 0 0 1-.01-.033.15.15 0 0 1 .022-.051zm.676 3.419a.389.389 0 0 1-.026.144.064.064 0 0 1-.03.031.085.085 0 0 1-.039.01H30.85a.121.121 0 0 1-.09-.038c-.025-.025-.037-.065-.037-.123v-.09a.376.376 0 0 1 .051-.186 1.81 1.81 0 0 1 .045-.076l1.047-1.632h-1.016c-.028 0-.051-.013-.068-.042a.3.3 0 0 1-.025-.142c0-.032.002-.058.006-.083a.19.19 0 0 1 .017-.058.076.076 0 0 1 .029-.032.088.088 0 0 1 .04-.01h1.362c.02 0 .039.003.053.009a.096.096 0 0 1 .038.025.14.14 0 0 1 .025.048.255.255 0 0 1 .01.074v.086a.4.4 0 0 1-.052.195.645.645 0 0 1-.044.076l-1.042 1.632h1.113a.076.076 0 0 1 .038.01.079.079 0 0 1 .03.03.208.208 0 0 1 .02.056.394.394 0 0 1 .008.085" fill="#231f20"/></svg>