<?xml version="1.0" standalone="no"?>
<!DOCTYPE svg PUBLIC "-//W3C//DTD SVG 20010904//EN"
 "http://www.w3.org/TR/2001/REC-SVG-20010904/DTD/svg10.dtd">
<svg version="1.0" xmlns="http://www.w3.org/2000/svg"
 width="260.000000pt" height="260.000000pt" viewBox="0 0 260.000000 260.000000"
 preserveAspectRatio="xMidYMid meet">
<metadata>
Created by potrace 1.11, written by Peter Selinger 2001-2013
</metadata>
<g transform="translate(0.000000,260.000000) scale(0.100000,-0.100000)"
fill="#000000" stroke="none">
<path d="M666 2215 c-187 -53 -338 -199 -397 -385 -29 -90 -29 -240 0 -330 46
-144 155 -274 283 -338 221 -111 485 -71 655 98 105 104 160 223 170 366 18
251 -128 480 -363 570 -57 22 -89 28 -184 30 -78 2 -131 -1 -164 -11z m317
-183 c201 -94 292 -341 197 -536 -151 -313 -583 -311 -737 2 -26 52 -28 67
-28 167 0 98 3 116 26 166 31 66 85 128 148 171 111 77 269 89 394 30z"/>
<path d="M1560 2156 l0 -74 158 -4 c180 -6 236 -21 322 -89 106 -84 154 -184
154 -324 0 -105 -22 -171 -81 -249 -90 -117 -183 -156 -400 -163 l-153 -6 0
-74 0 -73 128 0 c73 0 157 7 197 15 220 46 394 220 440 440 18 88 18 132 0
220 -35 164 -145 312 -291 388 -101 52 -174 67 -336 67 l-138 0 0 -74z"/>
<path d="M666 915 c-134 -37 -270 -140 -339 -256 -40 -68 -72 -163 -81 -241
l-6 -48 84 0 83 0 6 55 c11 108 83 219 185 284 114 72 268 80 388 21 120 -59
202 -167 226 -298 l12 -62 76 0 76 0 12 62 c24 132 106 239 226 298 125 62
286 49 402 -31 90 -62 161 -175 171 -275 l6 -54 83 0 84 0 -6 48 c-29 247
-210 451 -446 502 -82 18 -238 8 -313 -20 -105 -40 -199 -110 -268 -200 l-27
-35 -27 35 c-78 102 -199 184 -319 215 -71 18 -220 18 -288 0z"/>
</g>
</svg>
